<svg width="70" height="71" viewBox="0 0 70 71" fill="none" xmlns="http://www.w3.org/2000/svg">
<path fill-rule="evenodd" clip-rule="evenodd" d="M53.4328 57.2124V44.2104C53.4328 36.4004 48.6596 29.7029 41.8754 26.8743C41.8754 22.8841 38.6364 19.6509 34.652 19.6509C30.6589 19.6509 27.4286 22.8841 27.4286 26.8743C20.6358 29.7029 15.8712 36.4004 15.8712 44.2104V57.2124C15.8712 60.4023 13.2853 62.9911 10.0925 62.9911H59.2115C56.0188 62.9911 53.4328 60.4023 53.4328 57.2124Z" stroke="white" stroke-width="2.6582" stroke-linecap="round" stroke-linejoin="round"/>
<path d="M40.4306 62.9907C40.4306 66.1806 37.8446 68.7694 34.6519 68.7694C31.4562 68.7694 28.8732 66.1806 28.8732 62.9907" stroke="white" stroke-width="2.6582" stroke-linecap="round" stroke-linejoin="round"/>
<path d="M10.0925 26.8734C10.0925 18.0984 17.2003 10.9819 25.984 10.9819" stroke="white" stroke-width="2.6582" stroke-linecap="round" stroke-linejoin="round"/>
<path d="M1.4248 26.8739C1.4248 13.3113 12.4159 2.31445 25.9843 2.31445" stroke="white" stroke-width="2.6582" stroke-linecap="round" stroke-linejoin="round"/>
<path d="M59.2115 26.8734C59.2115 18.0984 52.0892 10.9819 43.3201 10.9819" stroke="white" stroke-width="2.6582" stroke-linecap="round" stroke-linejoin="round"/>
<path d="M67.8796 26.8739C67.8796 13.3113 56.8798 2.31445 43.3201 2.31445" stroke="white" stroke-width="2.6582" stroke-linecap="round" stroke-linejoin="round"/>
</svg>
