<svg width="70" height="70" viewBox="0 0 70 70" fill="none" xmlns="http://www.w3.org/2000/svg">
<path fill-rule="evenodd" clip-rule="evenodd" d="M45.4236 68.4912H68.5379V2.0376H45.4236V68.4912Z" stroke="white" stroke-width="2.6582" stroke-linecap="round" stroke-linejoin="round"/>
<path fill-rule="evenodd" clip-rule="evenodd" d="M22.3096 68.4912H45.4239V36.709H22.3096V68.4912Z" stroke="white" stroke-width="2.6582" stroke-linecap="round" stroke-linejoin="round"/>
<path fill-rule="evenodd" clip-rule="evenodd" d="M33.8667 25.1533L22.3096 36.7105H45.4239L33.8667 25.1533V25.1533Z" stroke="white" stroke-width="2.6582" stroke-linecap="round" stroke-linejoin="round"/>
<path fill-rule="evenodd" clip-rule="evenodd" d="M4.97351 68.4914H22.3092V54.0449H4.97351V68.4914Z" stroke="white" stroke-width="2.6582" stroke-linecap="round" stroke-linejoin="round"/>
<path fill-rule="evenodd" clip-rule="evenodd" d="M22.3094 45.3784H7.86293L2.08435 54.0463H22.3094V45.3784V45.3784Z" stroke="white" stroke-width="2.6582" stroke-linecap="round" stroke-linejoin="round"/>
<path fill-rule="evenodd" clip-rule="evenodd" d="M10.7521 68.4915H16.5307V62.7129H10.7521V68.4915Z" stroke="white" stroke-width="2.6582" stroke-linecap="round" stroke-linejoin="round"/>
<path fill-rule="evenodd" clip-rule="evenodd" d="M28.0881 48.2659H39.6453V42.4873H28.0881V48.2659Z" stroke="white" stroke-width="2.6582" stroke-linecap="round" stroke-linejoin="round"/>
<path fill-rule="evenodd" clip-rule="evenodd" d="M28.0881 59.8235H39.6453V54.0449H28.0881V59.8235Z" stroke="white" stroke-width="2.6582" stroke-linecap="round" stroke-linejoin="round"/>
<path d="M51.202 7.81738V10.7067" stroke="white" stroke-width="2.6582" stroke-linecap="round" stroke-linejoin="round"/>
<path d="M56.9811 7.81738V10.7067" stroke="white" stroke-width="2.6582" stroke-linecap="round" stroke-linejoin="round"/>
<path d="M62.7596 7.81738V10.7067" stroke="white" stroke-width="2.6582" stroke-linecap="round" stroke-linejoin="round"/>
<path d="M51.202 19.375V22.2643" stroke="white" stroke-width="2.6582" stroke-linecap="round" stroke-linejoin="round"/>
<path d="M56.9811 19.375V22.2643" stroke="white" stroke-width="2.6582" stroke-linecap="round" stroke-linejoin="round"/>
<path d="M62.7596 19.375V22.2643" stroke="white" stroke-width="2.6582" stroke-linecap="round" stroke-linejoin="round"/>
<path d="M51.202 30.9316V33.8209" stroke="white" stroke-width="2.6582" stroke-linecap="round" stroke-linejoin="round"/>
<path d="M56.9811 30.9316V33.8209" stroke="white" stroke-width="2.6582" stroke-linecap="round" stroke-linejoin="round"/>
<path d="M62.7596 30.9316V33.8209" stroke="white" stroke-width="2.6582" stroke-linecap="round" stroke-linejoin="round"/>
<path d="M51.202 42.4893V45.3785" stroke="white" stroke-width="2.6582" stroke-linecap="round" stroke-linejoin="round"/>
<path d="M56.9811 42.4893V45.3785" stroke="white" stroke-width="2.6582" stroke-linecap="round" stroke-linejoin="round"/>
<path d="M62.7596 42.4893V45.3785" stroke="white" stroke-width="2.6582" stroke-linecap="round" stroke-linejoin="round"/>
<path d="M51.202 54.0459V56.9352" stroke="white" stroke-width="2.6582" stroke-linecap="round" stroke-linejoin="round"/>
<path d="M56.9811 54.0459V56.9352" stroke="white" stroke-width="2.6582" stroke-linecap="round" stroke-linejoin="round"/>
<path d="M62.7596 54.0459V56.9352" stroke="white" stroke-width="2.6582" stroke-linecap="round" stroke-linejoin="round"/>
<path fill-rule="evenodd" clip-rule="evenodd" d="M25.3822 19.3749C25.3822 19.3749 30.9759 18.6468 30.9759 13.16C30.9759 9.68421 28.1039 6.82381 24.5357 6.95961C23.1459 4.01542 20.1526 1.97559 16.6826 1.97559C12.0568 1.97559 7.97427 5.59298 7.70556 10.1523C4.80472 9.54552 2.08301 11.7529 2.08301 14.7145C2.08301 19.4471 7.05547 19.3749 7.05547 19.3749H25.3822V19.3749Z" stroke="white" stroke-width="2.6582" stroke-linecap="round" stroke-linejoin="round"/>
</svg>
