<svg width="89" height="50" viewBox="0 0 89 50" fill="none" xmlns="http://www.w3.org/2000/svg">
<path fill-rule="evenodd" clip-rule="evenodd" d="M25.5465 1.53125C12.6255 1.53125 2.1543 12.0067 2.1543 24.9234C2.1543 37.8402 12.6255 48.3156 25.5465 48.3156C36.2516 48.3156 45.2555 41.1151 48.0328 31.3031H53.1918L57.4449 35.5562L61.698 31.3031H65.9512L70.2043 35.5562L74.4574 31.3031H80.8371L87.2168 24.9234L80.8371 18.5437H48.0328C45.2555 8.72754 36.2516 1.53125 25.5465 1.53125V1.53125Z" stroke="white" stroke-width="2.6582" stroke-linecap="round" stroke-linejoin="round"/>
<path fill-rule="evenodd" clip-rule="evenodd" d="M17.0408 18.5439C20.5623 18.5439 23.4204 21.3978 23.4204 24.9236C23.4204 28.4452 20.5623 31.3033 17.0408 31.3033C13.5192 31.3033 10.6611 28.4452 10.6611 24.9236C10.6611 21.3978 13.5192 18.5439 17.0408 18.5439V18.5439Z" stroke="white" stroke-width="2.6582" stroke-linecap="round" stroke-linejoin="round"/>
</svg>
