<svg width="66" height="59" viewBox="0 0 66 59" fill="none" xmlns="http://www.w3.org/2000/svg">
<path d="M5.60198 0.5495C4.30345 0.969494 3.24681 1.88658 2.64805 3.15986L2.31711 3.87291L2.27923 8.11275L2.24068 12.34L1.76952 12.5819C1.51499 12.7221 1.12025 13.0145 0.89098 13.257C0.0888672 14.0844 0.0888672 14.097 0.0888672 19.8135C0.0888672 23.1369 0.140038 25.1864 0.229087 25.5047C0.381934 26.0776 1.42594 27.1854 1.92236 27.313L2.25331 27.3894V29.6555C2.25331 31.909 2.25331 31.9216 1.96024 31.998C1.5017 32.1123 0.649083 32.9145 0.356017 33.5132C0.101494 34.0482 0.0888672 34.2515 0.0888672 39.3699C0.0888672 45.2266 0.0888672 45.2266 0.89098 46.0546C1.12025 46.2965 1.51499 46.5896 1.76952 46.7298L2.24068 46.9717L2.27923 51.1989L2.31711 55.4387L2.66068 56.1644C3.13185 57.1699 3.9087 57.9727 4.91417 58.4691L5.75483 58.8765H33.7663H61.7771L62.5028 58.5329C63.4704 58.087 64.3875 57.2091 64.8454 56.3047L65.2148 55.5663V29.6562V3.74599L64.8586 3.04555C64.3875 2.12913 63.5216 1.2506 62.6178 0.804688L61.9047 0.4352L34.0208 0.409943C11.2041 0.396652 6.0346 0.422569 5.60198 0.5495ZM62.2104 2.90533C62.4397 3.0708 62.7447 3.44029 62.8723 3.7327C63.1016 4.24174 63.1142 5.15882 63.1142 29.6555V55.0693L62.8344 55.6295C62.6178 56.0495 62.3885 56.2787 61.9685 56.4954L61.4083 56.7752H33.7656H6.12365L5.56344 56.4821C5.14344 56.2781 4.91417 56.0495 4.69753 55.6288C4.41709 55.0686 4.41709 54.9922 4.443 51.0454L4.48088 47.0348H6.07248H7.66475L7.70262 50.2433L7.72788 53.4644H33.7656H59.8034V29.6548V5.84531H33.7656H7.72854L7.70329 9.05376L7.66541 12.2748H6.07381H4.48155L4.44367 8.26427C4.41842 4.3175 4.41842 4.24108 4.69819 3.68086C4.91483 3.26087 5.1441 3.0316 5.5641 2.81495L6.13694 2.53451L33.957 2.55976L61.7771 2.59764L62.2104 2.90533ZM57.639 29.6555V51.3006H33.7656H9.89299V49.1361V46.9717L10.1987 46.8441C10.7077 46.6534 11.5736 45.8001 11.8155 45.2525C12.0322 44.7813 12.0574 44.2975 12.0574 39.4211C12.0574 35.1434 12.0195 34.0223 11.8793 33.6787C11.6248 33.0547 10.8353 32.2399 10.3263 32.0485L9.89365 31.8957V29.6422C9.89365 27.4013 9.89365 27.3887 10.1867 27.3123C10.6453 27.198 11.4979 26.3959 11.7909 25.7971C12.0455 25.2622 12.0581 25.0588 12.0581 19.9019C12.0581 15.0128 12.0328 14.529 11.8162 14.0578C11.549 13.4591 10.9124 12.8098 10.3263 12.53L9.89365 12.326V10.1742V8.00975H33.767H57.639V29.6555ZM9.58729 14.7716C9.81656 15.0261 9.82919 15.3065 9.82919 19.9411V24.8428L9.52349 25.0847C9.24305 25.314 9.01445 25.3266 5.76745 25.3014L2.31711 25.2635L2.27923 20.0434C2.2666 17.1786 2.27923 14.747 2.31711 14.6705C2.35499 14.5429 3.18302 14.5051 5.8565 14.5051C9.24372 14.5044 9.3454 14.517 9.58729 14.7716ZM7.72854 29.6555V31.8199H6.07315H4.41775V29.6555V27.4911H6.07315H7.72854V29.6555ZM9.52349 34.2269L9.82919 34.4688V39.3706C9.82919 44.0178 9.81656 44.2856 9.58729 44.5401C9.3454 44.8073 9.26897 44.8073 5.83125 44.782L2.31711 44.7441L2.27923 39.5241C2.2666 36.6592 2.27923 34.2276 2.31711 34.1512C2.35499 34.0236 3.17039 33.9857 5.806 33.9857C8.98853 33.985 9.24372 33.9977 9.52349 34.2269Z" fill="white"/>
<path d="M50.9537 15.6377C49.8206 15.9181 48.5726 17.0253 48.14 18.1331C47.9107 18.7445 47.8981 19.2282 47.8981 29.6557C47.8981 42.0569 47.8217 41.2169 49.0059 42.4643C49.9861 43.5083 50.5849 43.7123 52.8131 43.7628L54.6592 43.814L55.0666 43.4704C55.5889 43.0378 55.6268 42.4011 55.1556 41.9426C54.8626 41.6369 54.7735 41.6243 53.2205 41.6243C51.3491 41.6243 50.7503 41.4967 50.3815 41.0255C50.127 40.7072 50.127 40.5929 50.127 29.6683C50.127 19.6735 50.1522 18.6042 50.3303 18.3364C50.6998 17.8141 51.2468 17.6872 53.1188 17.6872C54.7868 17.6872 54.8632 17.6745 55.1563 17.3688C55.6275 16.9103 55.5889 16.2737 55.0799 15.8537C54.6978 15.5353 54.6472 15.5227 53.0171 15.5353C52.0874 15.5486 51.1703 15.5865 50.9537 15.6377Z" fill="white"/>
<path d="M27.6537 16.7576C22.7134 17.5345 18.6264 21.0101 17.0222 25.7975C15.087 31.6037 17.8628 38.1987 23.4903 41.1526C26.9532 42.9609 30.7857 43.1263 34.4148 41.6112C35.8535 41.0131 38.2858 39.3191 38.9603 38.4406C40.31 36.6835 40.6283 36.225 41.0742 35.3212C42.8187 31.7692 42.8818 28.0258 41.2776 24.3714C40.6536 22.9579 39.062 20.7934 38.0944 20.0166C35.2169 17.7119 32.887 16.7955 29.755 16.7317C28.812 16.7065 27.8703 16.7198 27.6537 16.7576ZM28.3541 20.1063C28.3541 21.3032 28.3793 21.4175 28.6724 21.6979C29.0545 22.0926 29.729 22.1179 30.1497 21.7743C30.4295 21.5451 30.4554 21.4175 30.4933 20.1827C30.5185 19.4444 30.5571 18.833 30.5697 18.833C30.8369 18.833 32.3141 19.164 32.9382 19.368C33.9948 19.6989 34.5809 19.992 35.5738 20.6539L36.3633 21.1762L35.4209 22.1564C34.4148 23.1878 34.3257 23.4171 34.6567 24.0404C34.86 24.4478 35.0767 24.5628 35.6369 24.5628C35.9426 24.5628 36.2097 24.3721 36.9607 23.6457C38.0432 22.6017 37.8904 22.5631 38.7942 24.0531C39.3544 24.9828 40.0037 26.8289 40.1439 27.8344L40.2329 28.5089H39.1889C37.5083 28.5089 36.8205 28.9801 37.0883 29.935C37.2664 30.559 37.8392 30.8009 39.1637 30.8009H40.2329L40.1439 31.4628C40.0037 32.4816 39.367 34.2891 38.7942 35.2441C37.8904 36.7467 38.0432 36.7081 36.9607 35.6641C36.2097 34.9384 35.9419 34.7477 35.6369 34.7477C35.0767 34.7477 34.86 34.8627 34.6567 35.27C34.3257 35.894 34.4148 36.1233 35.4209 37.1547L36.3633 38.1349L35.5738 38.6566C34.5809 39.3185 33.9948 39.6115 32.9382 39.9425C32.3141 40.1465 30.8375 40.4774 30.5697 40.4774C30.5571 40.4774 30.5185 39.8661 30.4933 39.1277C30.4554 37.893 30.4295 37.7654 30.1497 37.5361C29.7297 37.1926 29.0545 37.2178 28.6724 37.6126C28.3793 37.893 28.3541 38.0073 28.3541 39.2042C28.3541 39.9046 28.3415 40.4774 28.3162 40.4774C28.291 40.4774 27.9341 40.4136 27.5141 40.3372C25.961 40.0701 24.4964 39.4839 23.16 38.5928L22.4722 38.1469L23.2995 37.3069C23.7581 36.8483 24.1907 36.3393 24.2671 36.1738C24.5854 35.5757 24.0126 34.7477 23.2743 34.7477C22.8795 34.7477 22.7014 34.8753 21.8867 35.6641L20.957 36.5938L20.7151 36.2755C19.8113 35.0786 19.1361 33.5508 18.8052 31.9466L18.5885 30.8641L19.8106 30.8003C21.1856 30.7238 21.5039 30.5969 21.7332 30.036C21.8608 29.7303 21.8608 29.5775 21.7332 29.2725C21.5039 28.7122 21.1856 28.5846 19.8106 28.5082L18.5885 28.4444L18.8052 27.3619C19.1361 25.7576 19.8113 24.2298 20.7151 23.033L20.957 22.7147L21.8867 23.6311C22.7014 24.4332 22.8795 24.5608 23.2743 24.5608C24.0126 24.5608 24.5854 23.7334 24.2671 23.1347C24.1907 22.9692 23.7581 22.4601 23.2995 22.0016L22.4722 21.1609L23.1978 20.6898C24.293 19.9515 25.7444 19.3274 26.9539 19.0729C27.5526 18.9586 28.1129 18.8437 28.2019 18.8437C28.3156 18.833 28.3541 19.164 28.3541 20.1063Z" fill="white"/>
<path d="M28.6088 24.3338C26.6737 24.6394 24.789 26.3201 24.2288 28.2426C23.6686 30.1526 24.254 32.0625 25.8456 33.565C27.921 35.5261 30.875 35.5128 33.0268 33.5524C33.8289 32.8267 34.2748 32.1136 34.6058 31.0444C35.7136 27.491 32.3523 23.735 28.6088 24.3338ZM30.8371 26.651C31.8811 27.0963 32.5556 28.0898 32.6447 29.3372C32.7723 30.7885 32.1483 31.9728 30.964 32.5582C30.2131 32.9403 28.8248 32.9909 28.0991 32.6858C26.5713 32.0366 25.8204 30.2283 26.3421 28.4972C26.5075 27.9117 27.208 27.0584 27.7296 26.7913C28.5836 26.3453 29.9459 26.2816 30.8371 26.651Z" fill="white"/>
<path d="M52.6222 19.1003L52.2913 19.3548V29.6553V39.9559L52.6222 40.2104C53.0681 40.5666 53.6024 40.5414 54.0357 40.1725L54.3919 39.8668V29.6553V19.4439L54.0357 19.1382C53.6031 18.7693 53.0681 18.7441 52.6222 19.1003Z" fill="white"/>
</svg>
