<svg width="70" height="64" viewBox="0 0 70 64" fill="none" xmlns="http://www.w3.org/2000/svg">
<path d="M2.1543 56.8703H19.4904C24.2752 56.8703 28.1585 52.987 28.1585 48.2022V39.5342" stroke="white" stroke-width="2.6582" stroke-linecap="round" stroke-linejoin="round"/>
<path d="M2.1543 51.0918V62.6492" stroke="white" stroke-width="2.6582" stroke-linecap="round" stroke-linejoin="round"/>
<path d="M62.8311 12.8525V26.5307H57.0524" stroke="white" stroke-width="2.6582" stroke-linecap="round" stroke-linejoin="round"/>
<path fill-rule="evenodd" clip-rule="evenodd" d="M54.163 1.97266H13.7121C7.32955 1.97266 2.15472 7.14748 2.15472 13.5301V22.1981C2.15472 28.5807 7.32955 33.7555 13.7121 33.7555H52.7184C55.1108 33.7555 57.0524 31.8139 57.0524 27.9768V16.4194L68.6098 9.19603V1.97266H54.163V1.97266Z" stroke="white" stroke-width="2.6582" stroke-linecap="round" stroke-linejoin="round"/>
<path fill-rule="evenodd" clip-rule="evenodd" d="M33.9376 22.1983C33.9376 24.5936 31.9959 26.5323 29.6036 26.5323C27.2112 26.5323 25.2695 24.5936 25.2695 22.1983C25.2695 19.8001 27.2112 17.8643 29.6036 17.8643C31.9959 17.8643 33.9376 19.8001 33.9376 22.1983V22.1983Z" stroke="white" stroke-width="2.6582" stroke-linecap="round" stroke-linejoin="round"/>
<path d="M2.1543 22.1978H16.6011" stroke="white" stroke-width="2.6582" stroke-linecap="round" stroke-linejoin="round"/>
<path d="M2.1543 13.5298H13.7117" stroke="white" stroke-width="2.6582" stroke-linecap="round" stroke-linejoin="round"/>
</svg>
