<svg width="70" height="62" viewBox="0 0 70 62" fill="none" xmlns="http://www.w3.org/2000/svg">
<path d="M62.5141 24.6108V59.7511H7.61639V24.6108" stroke="white" stroke-width="2.6582" stroke-linecap="round" stroke-linejoin="round"/>
<path fill-rule="evenodd" clip-rule="evenodd" d="M13.3948 51.0832H36.5096V33.7471H13.3948V51.0832Z" stroke="white" stroke-width="2.6582" stroke-linecap="round" stroke-linejoin="round"/>
<path fill-rule="evenodd" clip-rule="evenodd" d="M42.2885 59.7512H56.7353V33.7471H42.2885V59.7512Z" stroke="white" stroke-width="2.6582" stroke-linecap="round" stroke-linejoin="round"/>
<path fill-rule="evenodd" clip-rule="evenodd" d="M62.5143 1.96289H7.61659L1.83789 13.5203H68.293L62.5143 1.96289V1.96289Z" stroke="white" stroke-width="2.6582" stroke-linecap="round" stroke-linejoin="round"/>
<path fill-rule="evenodd" clip-rule="evenodd" d="M68.293 16.4113C68.293 23.0626 60.3184 28.6275 53.8462 22.19C49.6451 28.8644 40.3876 30.078 35.0654 24.0392C29.6855 30.156 20.4309 28.772 16.2846 22.19C9.88762 28.5639 1.83789 23.1348 1.83789 16.4113V13.522H68.293V16.4113V16.4113Z" stroke="white" stroke-width="2.6582" stroke-linecap="round" stroke-linejoin="round"/>
<path d="M16.2841 22.1898V13.5218L19.1734 1.96436" stroke="white" stroke-width="2.6582" stroke-linecap="round" stroke-linejoin="round"/>
<path d="M35.0654 24.0549V13.5203V1.96289" stroke="white" stroke-width="2.6582" stroke-linecap="round" stroke-linejoin="round"/>
<path d="M53.8456 22.1898V13.5218L50.9562 1.96436" stroke="white" stroke-width="2.6582" stroke-linecap="round" stroke-linejoin="round"/>
<path fill-rule="evenodd" clip-rule="evenodd" d="M50.9563 46.7495C50.1588 46.7495 49.5116 47.3967 49.5116 48.1942C49.5116 48.9945 50.1588 49.6389 50.9563 49.6389C51.7537 49.6389 52.4009 48.9945 52.4009 48.1942C52.4009 47.3967 51.7537 46.7495 50.9563 46.7495Z" fill="white"/>
</svg>
