<svg width="179" height="80" viewBox="0 0 179 80" fill="none" xmlns="http://www.w3.org/2000/svg">
<path d="M42.4085 37.0357L36.112 50.1139H48.7158L42.4085 37.0357ZM40.8343 34.4912H44.0042L55.1632 57.5317H52.2845L49.9449 52.6584H34.8936L32.554 57.5317H29.6753L40.8343 34.4912Z" fill="#222222"/>
<path d="M77.3858 42.8572C77.3858 37.0351 78.9923 34.2427 84.0812 34.2427H93.8171C98.4424 34.2427 99.7039 36.8842 99.7039 39.9678V41.9408H97.4721V40.8842C97.4721 36.9704 95.499 36.7872 93.1594 36.7872H84.34C81.8926 36.7872 79.9303 37.6712 79.9303 41.682V50.329C79.9303 54.3398 81.9033 55.2238 84.34 55.2238H93.2349C96.6527 55.2238 97.6446 54.329 97.6446 51.213V49.7899H100.027V51.3425C100.027 55.515 98.9384 57.7683 93.677 57.7683H84.0705C78.9923 57.7683 77.375 54.9651 77.375 49.143V42.8572H77.3858Z" fill="#222222"/>
<path d="M125.309 41.682C125.309 37.6712 123.336 36.7872 120.9 36.7872H110.603C108.166 36.7872 106.193 37.6712 106.193 41.682V50.329C106.193 54.3398 108.166 55.2238 110.603 55.2238H120.9C123.336 55.2238 125.309 54.329 125.309 50.329V41.682ZM103.649 42.8572C103.649 37.0351 105.255 34.2427 110.344 34.2427H121.169C126.258 34.2427 127.865 37.0459 127.865 42.8572V49.1538C127.865 54.9759 126.258 57.7791 121.169 57.7791H110.344C105.255 57.7791 103.649 54.9759 103.649 49.1538V42.8572Z" fill="#222222"/>
<path d="M132.34 34.4912H150.248V37.0357H134.884V44.3888H149.655V46.9333H134.884V57.5317H132.34V34.4912Z" fill="#222222"/>
<path d="M85.3096 68.615L87.1533 68.4209C87.2611 69.1002 87.4875 69.607 87.8218 69.9304C88.1668 70.2539 88.6197 70.4156 89.1911 70.4156C89.8057 70.4156 90.2586 70.2754 90.5712 69.9843C90.8731 69.704 91.0241 69.3698 91.0241 68.9816C91.0241 68.7336 90.9594 68.5288 90.83 68.3563C90.7006 68.1837 90.4742 68.0328 90.1615 67.9034C89.9459 67.8171 89.4391 67.6662 88.652 67.4506C87.6277 67.1702 86.9269 66.8252 86.5172 66.4263C85.9349 65.8548 85.6546 65.154 85.6546 64.3345C85.6546 63.8062 85.7948 63.3102 86.0643 62.8466C86.3339 62.383 86.722 62.0379 87.2288 61.79C87.7463 61.5528 88.3501 61.4233 89.0725 61.4233C90.2478 61.4233 91.1319 61.7145 91.7249 62.2859C92.318 62.8574 92.6306 63.6229 92.663 64.5825L90.7653 64.6796C90.6898 64.1512 90.5173 63.7631 90.2478 63.5259C89.9782 63.2887 89.5793 63.1701 89.051 63.1701C88.5011 63.1701 88.0698 63.2994 87.7679 63.5474C87.563 63.7091 87.466 63.9248 87.466 64.1943C87.466 64.4423 87.563 64.6472 87.7463 64.8305C87.9835 65.0569 88.555 65.2834 89.4822 65.5206C90.3987 65.7578 91.078 66.0165 91.5201 66.2645C91.9621 66.5233 92.3072 66.8791 92.5551 67.3212C92.8031 67.774 92.9325 68.3131 92.9325 68.9816C92.9325 69.5746 92.7816 70.1353 92.4797 70.6529C92.1885 71.1812 91.7573 71.5585 91.2182 71.8173C90.6791 72.0761 89.9998 72.1947 89.1911 72.1947C88.0051 72.1947 87.0994 71.8928 86.4633 71.289C85.8163 70.6636 85.439 69.7795 85.3096 68.615Z" fill="#979797"/>
<path d="M96.9113 61.0132L97.7846 58.8999H99.8009L98.0434 61.0132H96.9113ZM94.5068 71.9894V61.5954H101.44V63.3529H96.3937V65.6603H101.084V67.407H96.3937V70.2427H101.623V71.9894H94.5068Z" fill="#979797"/>
<path d="M109.203 68.1729L111.036 68.8199C110.745 69.952 110.281 70.793 109.634 71.3429C108.977 71.8928 108.157 72.1731 107.154 72.1731C105.904 72.1731 104.89 71.6987 104.092 70.7606C103.294 69.8118 102.896 68.5288 102.896 66.8899C102.896 65.154 103.294 63.817 104.103 62.8574C104.912 61.8978 105.968 61.4233 107.273 61.4233C108.416 61.4233 109.354 61.8007 110.055 62.5555C110.475 62.9975 110.799 63.6337 111.014 64.4639L109.149 64.9599C109.031 64.4208 108.804 64.0003 108.448 63.6768C108.092 63.3641 107.672 63.2132 107.176 63.2132C106.475 63.2132 105.925 63.4935 105.483 64.0434C105.052 64.6041 104.847 65.499 104.847 66.7281C104.847 68.0436 105.063 68.9816 105.483 69.5423C105.904 70.1029 106.454 70.3725 107.133 70.3725C107.64 70.3725 108.071 70.2 108.427 69.8442C108.793 69.4992 109.052 68.9385 109.203 68.1729Z" fill="#979797"/>
<path d="M112.642 61.6069H114.539V67.2352C114.539 68.1193 114.561 68.7123 114.604 68.9711C114.679 69.3916 114.874 69.7366 115.175 69.9954C115.477 70.2542 115.887 70.3836 116.426 70.3836C116.965 70.3836 117.364 70.2542 117.634 70.017C117.914 69.7798 118.065 69.4779 118.13 69.1221C118.184 68.7662 118.216 68.184 118.216 67.3538V61.6069H120.103V67.0627C120.103 68.3134 120.06 69.1975 119.952 69.7043C119.844 70.2218 119.661 70.6531 119.38 71.0089C119.111 71.3647 118.744 71.6451 118.281 71.8607C117.828 72.0764 117.224 72.1734 116.48 72.1734C115.585 72.1734 114.917 72.0548 114.453 71.8284C113.989 71.602 113.623 71.3 113.353 70.9334C113.084 70.5669 112.911 70.1787 112.825 69.7798C112.695 69.1867 112.642 68.3026 112.642 67.1382V61.6069Z" fill="#979797"/>
<path d="M123.985 65.9943H125.386C126.292 65.9943 126.853 65.9512 127.079 65.865C127.305 65.7787 127.478 65.6385 127.607 65.4229C127.737 65.218 127.801 64.9592 127.801 64.6466C127.801 64.3015 127.715 64.0212 127.553 63.8056C127.381 63.5899 127.144 63.4498 126.842 63.3958C126.691 63.3743 126.227 63.3635 125.472 63.3635H123.995V65.9943H123.985ZM122.098 71.9892V61.5952H126.076C127.079 61.5952 127.812 61.6923 128.254 61.8756C128.696 62.0589 129.074 62.3931 129.343 62.8675C129.613 63.3527 129.742 63.8918 129.742 64.5064C129.742 65.2827 129.537 65.9296 129.128 66.4364C128.718 66.9432 128.093 67.2558 127.284 67.396C127.694 67.6548 128.028 67.9459 128.297 68.2586C128.556 68.582 128.923 69.1427 129.365 69.9513L130.508 71.9784H128.254L126.885 69.7249C126.4 68.9163 126.065 68.4095 125.893 68.1939C125.72 67.9782 125.526 67.8381 125.332 67.7626C125.127 67.6871 124.815 67.644 124.383 67.644H123.995V71.9784H122.098V71.9892Z" fill="#979797"/>
<path d="M133.354 61.6069H131.467V72.0009H133.354V61.6069Z" fill="#979797"/>
<path d="M137.255 71.9901V63.3644H134.484V61.6069H141.913V63.3644H139.142V71.9901H137.255Z" fill="#979797"/>
<path d="M145.537 61.0132L146.411 58.8999H148.427L146.669 61.0132H145.537ZM143.133 71.9894V61.5954H150.066V63.3529H145.02V65.6603H149.721V67.407H145.02V70.2427H150.249V71.9894H143.133Z" fill="#979797"/>
<path d="M58.0327 34.4912H60.5772V54.9764H75.1648V57.5317H58.0327V34.4912Z" fill="#222222"/>
<path d="M24.0058 66.9218C24.0058 66.9218 0.27533 43.0511 18.8737 22.6522C37.4829 2.24246 71.7364 1.47696 104.459 9.17508C137.181 16.8732 163.758 34.7708 175.036 56.7762C180.427 67.2992 175.036 80 175.036 80C175.036 80 189.289 61.7789 161.688 35.9891C132.426 8.65756 96.3725 2.37184 65.1919 0.18316C33.9573 -1.99474 -37.0617 14.9541 24.0058 66.9218Z" fill="#FE7E17"/>
</svg>
